<?xml version="1.0" encoding="utf-8"?>
<!-- Generator: Adobe Illustrator 15.1.0, SVG Export Plug-In . SVG Version: 6.00 Build 0)  -->
<!DOCTYPE svg PUBLIC "-//W3C//DTD SVG 1.1//EN" "http://www.w3.org/Graphics/SVG/1.1/DTD/svg11.dtd">
<svg version="1.1" id="Layer_1" xmlns="http://www.w3.org/2000/svg" xmlns:xlink="http://www.w3.org/1999/xlink" x="0px" y="0px"
	 width="15px" height="15px" viewBox="0 0 15 15" enable-background="new 0 0 15 15" xml:space="preserve">
<g id="Банкоматы" transform="translate(5.000000, 180.000000)">
	<path id="Fill-1" fill="#535252" d="M2.5-171.514v-0.667h-2.75c0.084,0.417,0.416,0.667,0.75,0.667H2.5z"/>
	<path id="Fill-3" fill="#535252" d="M1-171.098c-0.416,0-0.75,0.334-0.75,0.75c0,0.418,0.334,0.75,0.75,0.75h0.75
		c0.166-0.582,0.416-1.082,0.75-1.582H1V-171.098z"/>
	<path id="Fill-5" fill="#535252" d="M4.584-177.18c0-0.5,0.25-0.833,0.832-0.833c0.5,0,0.75,0.333,0.75,0.917v0.583
		c0,0.5-0.25,0.833-0.832,0.833c-0.5,0-0.75-0.333-0.75-0.917V-177.18z M5.334-175.263c0.832,0,1.25-0.5,1.25-1.25v-0.583
		c0-0.833-0.5-1.333-1.25-1.333c-0.834,0-1.25,0.5-1.25,1.25v0.583C4.084-175.764,4.584-175.263,5.334-175.263L5.334-175.263z"/>
	<path id="Fill-7" fill="#535252" d="M1.75-177.18c0-0.5,0.25-0.833,0.833-0.833c0.5,0,0.751,0.333,0.751,0.917v0.583
		c0,0.5-0.251,0.833-0.835,0.833c-0.5,0-0.75-0.333-0.75-0.917V-177.18z M2.5-175.263c0.835,0,1.251-0.5,1.251-1.25v-0.583
		c0-0.833-0.501-1.333-1.251-1.333c-0.833,0-1.25,0.5-1.25,1.25v0.583C1.25-175.764,1.75-175.347,2.5-175.263L2.5-175.263z"/>
	<polygon id="Fill-9" fill="#535252" points="0.417,-177.847 0.334,-175.347 0.834,-175.347 0.834,-178.43 0.417,-178.43 
		-0.666,-177.347 -0.583,-176.93 	"/>
	<g id="Group-13" transform="translate(0.000000, 0.216210)">
		<path id="Fill-11" fill="#535252" d="M8.834-174.3H5.166v-0.333c0-0.583-0.5-1-1-1c-0.581,0-1,0.5-1,1v0.333h-5.332v-5.583H8.916
			v5.583H8.834z M5.082-173.549H8v-0.417H5.082V-173.549z M5.082-172.716H7.25v-0.417H5.082V-172.716z M3-173.549h-6.084v-5.583
			h0.418v5.167H3V-173.549z M3-172.716h-6.833v-5.583h0.417v5.167H3V-172.716z M-2.583-180.216v0.75h-0.75v0.75h-0.833v6.25H-4h7
			l0,0l0,0v0.916c-0.584,1-1,2.25-1.083,3.5c0,0.418,0.084,0.834,0.168,1.334v1.5h4v-0.916c0-0.418,0.166-1.084,0.25-1.5l1.25-3.418
			c0.166-0.416,0.166-1.165,0.082-1.583L7.5-173.216l0,0l0,0h0.834v-0.75h0.832v-6.25H-2.583L-2.583-180.216z"/>
	</g>
</g>
</svg>
