<?xml version="1.0" encoding="utf-8"?>
<!-- Generator: Adobe Illustrator 15.1.0, SVG Export Plug-In . SVG Version: 6.00 Build 0)  -->
<!DOCTYPE svg PUBLIC "-//W3C//DTD SVG 1.1//EN" "http://www.w3.org/Graphics/SVG/1.1/DTD/svg11.dtd">
<svg version="1.1" id="Layer_1" xmlns="http://www.w3.org/2000/svg" xmlns:xlink="http://www.w3.org/1999/xlink" x="0px" y="0px"
	 width="15px" height="15px" viewBox="0 0 15 15" enable-background="new 0 0 15 15" xml:space="preserve">
<g id="Page-1_2_" transform="translate(8.000000, 268.000000)">
	<path id="Fill-1_5_" fill="#535252" d="M2.203-263.529C2.461-265.507,3.148-268,1.258-268c-1.979,0-1.205,2.407-1.033,4.471H2.203z
		"/>
	<path id="Fill-3_2_" fill="#535252" d="M1.344-257.598c-0.518-1.977-2.495-3.094-4.386-2.579c-1.978,0.516-3.095,2.493-2.579,4.471
		s2.493,3.096,4.471,2.58C0.74-253.641,1.859-255.619,1.344-257.598 M-3.472-257.08c-0.345,0.086-0.603-0.086-0.688-0.43
		c-0.086-0.26,0.086-0.604,0.43-0.689c0.345-0.086,0.603,0.086,0.688,0.43C-3.042-257.424-3.214-257.166-3.472-257.08
		 M-2.699-258.457c-0.344,0.086-0.602-0.086-0.688-0.43s0.086-0.602,0.43-0.688c0.258-0.086,0.602,0.086,0.688,0.43
		C-2.182-258.801-2.355-258.543-2.699-258.457 M-1.752-257.166c-0.258,0.086-0.603-0.086-0.688-0.432
		c-0.086-0.258,0.086-0.602,0.431-0.688c0.258-0.086,0.602,0.086,0.688,0.43C-1.323-257.51-1.495-257.252-1.752-257.166"/>
	<path id="Fill-5_2_" fill="#535252" d="M2.117-262.067L2.117-262.067c0-0.172,0-0.516,0-0.516c0-0.086,0-0.258,0-0.43H0.225
		c0,0.172,0,0.258,0,0.43c0,0,0,0.344,0,0.43v0.086c-0.086,0.602-0.258,1.032-0.516,1.461c1.549,0.688,2.58,2.149,2.58,3.87
		c0,1.547-0.859,2.924-2.15,3.697h2.15c0,0,1.375-1.979,1.375-4.645C3.578-260.09,2.375-260.434,2.117-262.067"/>
</g>
</svg>
