<?xml version="1.0" encoding="utf-8"?>
<!-- Generator: Adobe Illustrator 15.1.0, SVG Export Plug-In . SVG Version: 6.00 Build 0)  -->
<!DOCTYPE svg PUBLIC "-//W3C//DTD SVG 1.1//EN" "http://www.w3.org/Graphics/SVG/1.1/DTD/svg11.dtd">
<svg version="1.1" id="Layer_1" xmlns="http://www.w3.org/2000/svg" xmlns:xlink="http://www.w3.org/1999/xlink" x="0px" y="0px"
	 width="15px" height="15px" viewBox="0 0 15 15" enable-background="new 0 0 15 15" xml:space="preserve">
<g id="Page-1_3_" transform="translate(4.000000, 298.000000)">
	<path id="Fill-1_6_" fill="#535252" d="M7.983-289.196c-0.244,2.201-2.12,3.913-4.402,3.913s-4.157-1.712-4.401-3.913
		c-0.49-0.08-0.897-0.324-1.305-0.652l-0.082-0.08l0.49-0.49l0.082,0.082c0.326,0.326,0.652,0.488,1.141,0.488
		c0.408,0,0.815-0.162,1.141-0.488l0.082-0.082l0.489,0.49l-0.082,0.08c-0.326,0.328-0.733,0.572-1.223,0.652
		c0.244,1.795,1.793,3.263,3.668,3.263c1.876,0,3.425-1.386,3.669-3.263c-0.489-0.08-0.896-0.324-1.223-0.652l-0.082-0.08
		l0.489-0.49l0.081,0.082c0.326,0.326,0.652,0.488,1.143,0.488c0.406,0,0.814-0.162,1.141-0.488l0.082-0.082l0.488,0.49l-0.081,0.08
		C8.881-289.521,8.473-289.276,7.983-289.196L7.983-289.196z M0.239-294.005c0-0.652,0.408-1.06,1.223-1.06
		c0.733,0,1.223,0.407,1.223,1.06v0.489c0,0.652-0.49,1.06-1.223,1.06c-0.815,0-1.223-0.407-1.223-1.06V-294.005z M4.479-294.005
		c0-0.652,0.408-1.06,1.223-1.06c0.733,0,1.223,0.407,1.223,1.06v0.489c0,0.652-0.489,1.06-1.223,1.06
		c-0.734,0-1.223-0.407-1.223-1.06V-294.005z M3.5-298c-4.158,0-7.5,3.342-7.5,7.5c0,4.158,3.342,7.5,7.5,7.5
		c4.158,0,7.5-3.342,7.5-7.5C10.918-294.658,7.576-298,3.5-298L3.5-298z"/>
</g>
</svg>
