<?xml version="1.0" encoding="utf-8"?>
<!-- Generator: Adobe Illustrator 15.1.0, SVG Export Plug-In . SVG Version: 6.00 Build 0)  -->
<!DOCTYPE svg PUBLIC "-//W3C//DTD SVG 1.1//EN" "http://www.w3.org/Graphics/SVG/1.1/DTD/svg11.dtd">
<svg version="1.1" id="Layer_1" xmlns="http://www.w3.org/2000/svg" xmlns:xlink="http://www.w3.org/1999/xlink" x="0px" y="0px"
	 width="15px" height="15px" viewBox="0 0 15 15" enable-background="new 0 0 15 15" xml:space="preserve">
<g id="mechanical-stairs-going-down-copy-5" transform="translate(2.000000, 116.756000)">
	<ellipse id="Oval" fill="#535252" cx="4.239" cy="-114.229" rx="0.996" ry="0.996"/>
	<path id="Shape" fill="#535252" d="M11.407-113.764H8.155l0,0c-0.133,0-0.332,0.066-0.465,0.199l-2.323,2.323
		c-0.132,0.132-0.199,0.066-0.199-0.066v-0.73c0-0.464-0.398-0.863-0.863-0.863H4.106c-0.465,0-0.863,0.398-0.863,0.863v2.655
		c0,0.133-0.066,0.332-0.199,0.464l-1.66,1.66c-0.132,0.133-0.265,0.199-0.465,0.199h-1.394c-0.796,0-1.527,0.664-1.527,1.526v0.266
		c0,0.797,0.664,1.526,1.527,1.526h3.252c0.133,0,0.332-0.066,0.465-0.199l6.372-6.372c0.133-0.133,0.266-0.199,0.465-0.199h1.394
		c0.863,0,1.526-0.664,1.526-1.527v-0.265C12.935-113.101,12.271-113.764,11.407-113.764L11.407-113.764z M11.938-111.972
		c0,0.265-0.266,0.531-0.531,0.531H9.615c-0.133,0-0.331,0.066-0.465,0.199l-6.372,6.371c-0.132,0.133-0.265,0.2-0.464,0.2H-0.54
		c-0.266,0-0.531-0.266-0.531-0.531v-0.266c0-0.266,0.265-0.531,0.531-0.531h1.792c0.132,0,0.332-0.066,0.464-0.199l6.372-6.372
		c0.133-0.133,0.266-0.199,0.465-0.199h2.854c0.266,0,0.531,0.266,0.531,0.531V-111.972L11.938-111.972z"/>
</g>
</svg>
