<?xml version="1.0" encoding="utf-8"?>
<!-- Generator: Adobe Illustrator 15.1.0, SVG Export Plug-In . SVG Version: 6.00 Build 0)  -->
<!DOCTYPE svg PUBLIC "-//W3C//DTD SVG 1.1//EN" "http://www.w3.org/Graphics/SVG/1.1/DTD/svg11.dtd">
<svg version="1.1" id="Layer_1" xmlns="http://www.w3.org/2000/svg" xmlns:xlink="http://www.w3.org/1999/xlink" x="0px" y="0px"
	 width="15px" height="15px" viewBox="0 0 15 15" enable-background="new 0 0 15 15" xml:space="preserve">
<g id="Гардероб" transform="translate(0.000000, 327.000000)">
	<g id="Clip-2">
	</g>
	<path id="Fill-1_1_" fill="#535252" d="M7.046-321.417v-0.398c0-0.399-0.684-0.513-1.026-1.083
		c-0.228-0.342-0.285-0.684-0.285-0.969c0-0.456,0.399-1.823,1.823-1.823c1.31,0,1.88,1.139,1.88,1.766
		c0,0.684-0.969,0.854-1.025,0.057c-0.058-0.513-0.456-0.74-0.854-0.74c-0.229,0-0.798,0.228-0.798,0.854
		c0,0-0.057,0.513,0.456,0.797c0,0,0.798,0.342,0.798,1.025v0.626l6.322,3.703c0.741,0.455,0.741,1.196,0.57,1.651
		c-0.114,0.456-0.57,1.025-1.481,1.025H1.463c-0.854,0-1.311-0.569-1.424-1.025c-0.114-0.455,0-1.253,0.626-1.651L7.046-321.417z
		 M1.235-316.804c-0.342,0.229-0.114,0.798,0.285,0.741h11.962c0.399,0,0.627-0.513,0.229-0.798l-6.21-3.589L1.235-316.804z"/>
</g>
</svg>
