<?xml version="1.0" encoding="utf-8"?>
<!-- Generator: Adobe Illustrator 15.1.0, SVG Export Plug-In . SVG Version: 6.00 Build 0)  -->
<!DOCTYPE svg PUBLIC "-//W3C//DTD SVG 1.1//EN" "http://www.w3.org/Graphics/SVG/1.1/DTD/svg11.dtd">
<svg version="1.1" id="Layer_1" xmlns="http://www.w3.org/2000/svg" xmlns:xlink="http://www.w3.org/1999/xlink" x="0px" y="0px"
	 width="15px" height="15px" viewBox="0 0 15 15" enable-background="new 0 0 15 15" xml:space="preserve">
<g id="Комната-матери" transform="translate(7.000000, 88.000000)">
	<path id="Page-1_1_" fill="#535252" d="M0.435-83.793c-1.111,0-2.064-0.953-2.064-2.063c0-1.111,0.873-2.143,2.064-2.143
		c1.19,0,2.143,0.953,2.143,2.063C2.577-84.746,1.545-83.793,0.435-83.793L0.435-83.793z M-0.756-83.397h2.54
		c0.556,0,0.794,0.159,1.191,0.556l2.618,2.619c0.239,0.238,0.317,0.396,0.317,0.636c0,0.316-0.317,0.713-0.715,0.713
		c-0.236,0-0.396-0.078-0.714-0.396l-1.666-1.667v1.745h-4.445v-1.745l-1.746,1.825c-0.238,0.238-0.317,0.238-0.476,0.238
		c-0.397,0-0.714-0.318-0.714-0.713c0-0.24,0.08-0.318,0.317-0.636l2.54-2.619C-1.471-83.238-1.232-83.397-0.756-83.397
		L-0.756-83.397z M0.037-76.811l-1.27,1.271l1.19,1.109c0.317,0.318,0.397,0.479,0.397,0.715C0.355-73.316,0.037-73-0.439-73
		c-0.238,0-0.397,0-0.556-0.238l-2.143-2.223c-0.159-0.158-0.317-0.477-0.317-0.793s0.079-0.557,0.396-0.873l1.35-1.428
		L0.037-76.811z M4.164-77.127c0.317,0.316,0.396,0.557,0.396,0.873s-0.079,0.557-0.316,0.793l-2.144,2.223
		C1.863-73,1.704-73,1.545-73c-0.396,0-0.793-0.316-0.793-0.715c0-0.236,0.08-0.396,0.397-0.715l1.19-1.109l-1.271-1.271
		l1.668-1.666L4.164-77.127z"/>
</g>
</svg>
