<?xml version="1.0" encoding="utf-8"?>
<!-- Generator: Adobe Illustrator 15.1.0, SVG Export Plug-In . SVG Version: 6.00 Build 0)  -->
<!DOCTYPE svg PUBLIC "-//W3C//DTD SVG 1.1//EN" "http://www.w3.org/Graphics/SVG/1.1/DTD/svg11.dtd">
<svg version="1.1" id="Layer_1" xmlns="http://www.w3.org/2000/svg" xmlns:xlink="http://www.w3.org/1999/xlink" x="0px" y="0px"
	 width="15px" height="15px" viewBox="0 0 15 15" enable-background="new 0 0 15 15" xml:space="preserve">
<g id="Инвалиды" transform="translate(6.000000, 56.000000)">
	<path id="Fill-1_7_" fill="#535252" d="M0.937-42.127c-2.173,0-3.944-1.69-3.944-3.862c0-1.69,1.046-3.139,2.575-3.623
		l-0.322-1.046c-1.932,0.644-3.38,2.495-3.38,4.668c0,2.735,2.253,4.989,4.99,4.989c1.931,0,3.622-1.046,4.427-2.656l-0.645-1.287
		C4.317-43.334,2.787-42.127,0.937-42.127"/>
	<path id="Fill-3_3_" fill="#535252" d="M7.938-44.058l-1.771-3.864c0-0.08-0.241-0.563-0.483-0.563H2.868l-0.402-1.208h1.69
		c0.321,0,0.562-0.241,0.562-0.563c0-0.322-0.241-0.563-0.562-0.563H2.063L1.58-52.59c-0.16-0.563-0.724-0.805-1.288-0.644
		c-0.563,0.161-0.885,0.724-0.725,1.288l1.53,4.91c0.08,0.241,0.16,0.322,0.402,0.322h3.38l1.529,3.3
		c0.161,0.402,0.644,0.563,1.127,0.402C7.938-43.173,8.1-43.656,7.938-44.058"/>
	<g id="Group-7" transform="translate(4.348633, 0.062684)">
		<path id="Fill-5_3_" fill="#535252" d="M-2.487-54.855c0,0.644-0.564,1.207-1.208,1.207c-0.644,0-1.207-0.563-1.207-1.207
			c0-0.644,0.563-1.208,1.207-1.208C-3.052-56.063-2.487-55.499-2.487-54.855"/>
	</g>
</g>
</svg>
