<?xml version="1.0" encoding="utf-8"?>
<!-- Generator: Adobe Illustrator 15.1.0, SVG Export Plug-In . SVG Version: 6.00 Build 0)  -->
<!DOCTYPE svg PUBLIC "-//W3C//DTD SVG 1.1//EN" "http://www.w3.org/Graphics/SVG/1.1/DTD/svg11.dtd">
<svg version="1.1" id="Layer_1" xmlns="http://www.w3.org/2000/svg" xmlns:xlink="http://www.w3.org/1999/xlink" x="0px" y="0px"
	 width="15px" height="15px" viewBox="0 0 15 15" enable-background="new 0 0 15 15" xml:space="preserve">
<g id="Каток" transform="translate(2.000000, 207.000000)">
	<path id="Fill-1_3_" fill="#535252" d="M6.311-196.76c1.271-0.467,3.011-0.803,4.884-0.936c0,0,0.4-0.402,0.4-1.205
		c0-0.802-0.535-1.538-0.535-2.542s0.401-2.809,0.201-3.545c0,0-2.943-0.803-3.277-0.869c-0.268-0.067-1.539-0.602-1.739,0.936
		c-0.602,3.812-3.077,5.417-6.488,6.689c-0.87,0.334-1.337,0.602-1.337,1.07v0.602c0,0,2.006,0.602,4.548,0.602
		C4.772-195.957,4.974-196.291,6.311-196.76 M12.264-194.285c-0.803,0-1.672,0.135-1.672-1.336h0.603v-1.74
		c-1.873,0.135-3.612,0.535-4.884,0.938c-1.271,0.467-1.538,0.803-3.411,0.803c-2.542,0-4.548-0.604-4.548-0.604v0.268
		c0,0,0.133,0,0.334,0.066c-0.803,0.871-1.07,1.539,0.134,1.873c3.545,1.07,8.293,0.604,14.18,0.402
		C12.933-193.549,13.066-194.285,12.264-194.285 M2.164-195.422c0,0.602-0.267,1.137-1.672,0.938
		c-1.806-0.27-1.605-0.67-1.271-1.338C-0.11-195.621,0.96-195.422,2.164-195.422 M8.853-194.285
		c-0.735,0.135-3.344,0.068-4.481,0.068c-1.137,0-1.204-0.736-1.204-1.205c1.672,0,5.351-0.268,5.351-0.268h1.137
		C9.856-194.82,9.589-194.418,8.853-194.285"/>
</g>
</svg>
