<?xml version="1.0" encoding="utf-8"?>
<!-- Generator: Adobe Illustrator 15.1.0, SVG Export Plug-In . SVG Version: 6.00 Build 0)  -->
<!DOCTYPE svg PUBLIC "-//W3C//DTD SVG 1.1//EN" "http://www.w3.org/Graphics/SVG/1.1/DTD/svg11.dtd">
<svg version="1.1" id="Layer_1" xmlns="http://www.w3.org/2000/svg" xmlns:xlink="http://www.w3.org/1999/xlink" x="0px" y="0px"
	 width="15px" height="15px" viewBox="0 0 15 15" enable-background="new 0 0 15 15" xml:space="preserve">
<g id="кино" transform="translate(4.000000, 236.000000)">
	<path id="Fill-1_4_" fill="#535252" d="M-3.881-221.08v-5.425c0-1.356,0.798-2.155,2.154-2.155h6.465
		c1.355,0,2.154,0.878,2.154,2.155V-221H-3.881V-221.08z"/>
	<path id="Fill-4" fill="#535252" d="M3.938-236c-1.038,0-1.995,0.559-2.473,1.437C0.986-235.441,0.108-236-1.009-236
		c-1.516,0-2.792,1.197-2.792,2.793c0,1.516,1.276,2.792,2.792,2.792c1.038,0,1.995-0.639,2.474-1.516
		c0.479,0.958,1.436,1.516,2.473,1.516c1.517,0,2.794-1.277,2.794-2.792C6.732-234.723,5.455-236,3.938-236 M-1.009-231.691
		c-0.877,0-1.516-0.718-1.516-1.516c0-0.878,0.718-1.516,1.516-1.516c0.878,0,1.517,0.718,1.517,1.516
		C0.587-232.33-0.131-231.691-1.009-231.691 M3.938-231.691c-0.798,0-1.596-0.718-1.596-1.516c0-0.878,0.719-1.516,1.596-1.516
		c0.8,0,1.517,0.718,1.517,1.516C5.455-232.33,4.738-231.691,3.938-231.691"/>
	<path id="Fill-7_2_" fill="#535252" d="M7.529-225.628v1.117c0,0.479,3.352,2.075,3.352,2.075v-5.267
		C10.881-227.702,7.529-226.106,7.529-225.628"/>
</g>
</svg>
