<?xml version="1.0" encoding="utf-8"?>
<!-- Generator: Adobe Illustrator 15.1.0, SVG Export Plug-In . SVG Version: 6.00 Build 0)  -->
<!DOCTYPE svg PUBLIC "-//W3C//DTD SVG 1.1//EN" "http://www.w3.org/Graphics/SVG/1.1/DTD/svg11.dtd">
<svg version="1.1" id="Layer_1" xmlns="http://www.w3.org/2000/svg" xmlns:xlink="http://www.w3.org/1999/xlink" x="0px" y="0px"
	 width="15px" height="15px" viewBox="0 0 15 15" enable-background="new 0 0 15 15" xml:space="preserve">
<path fill="#535252" d="M5.644,15H4.82v-3.873c-1.566-0.166-2.473-1.154-2.473-2.639V2.637C2.347,0.989,3.501,0,5.396,0h4.945
	c1.978,0,3.05,0.989,3.05,2.637v5.851c0,1.648-1.154,2.639-3.05,2.639h-2.72L5.644,15z M5.396,0.906
	c-1.483,0-2.225,0.577-2.225,1.813v5.853c0,1.07,0.577,1.648,1.813,1.812l0.659,0.082v2.885l1.566-2.967h3.214
	c1.484,0,2.226-0.576,2.226-1.812V2.72c0-1.236-0.741-1.813-2.226-1.813H5.396z"/>
<path id="Path_1_" fill="#535252" d="M7.128,2.72c0-0.412,0.329-0.66,0.906-0.66S8.94,2.308,8.94,2.72v0.412
	c0,0.412-0.329,0.659-0.906,0.659S7.128,3.544,7.128,3.132V2.72z"/>
<polygon id="Path_2_" fill="#535252" points="6.633,4.286 8.693,4.286 8.693,5.027 8.693,8.406 10.095,8.406 10.095,9.23 
	6.221,9.23 6.221,8.406 7.457,8.406 7.457,5.027 6.633,5.027 "/>
</svg>
