<?xml version="1.0" encoding="utf-8"?>
<!-- Generator: Adobe Illustrator 15.1.0, SVG Export Plug-In . SVG Version: 6.00 Build 0)  -->
<!DOCTYPE svg PUBLIC "-//W3C//DTD SVG 1.1//EN" "http://www.w3.org/Graphics/SVG/1.1/DTD/svg11.dtd">
<svg version="1.1" id="Layer_1" xmlns="http://www.w3.org/2000/svg" xmlns:xlink="http://www.w3.org/1999/xlink" x="0px" y="0px"
	 width="15px" height="15px" viewBox="0 0 15 15" enable-background="new 0 0 15 15" xml:space="preserve">
<g id="Медкабинет" transform="translate(4.000000, 358.000000)">
	<g>
		<path id="Page-1_4_" fill="#535252" d="M1-357.693V-353h-4.461v4.846H1v4.77h4.845v-4.77h4.539V-353H5.924v-4.692H1z
			 M5.23-355.089v2.781h4.463v3.616H5.23v4.769H1.616v-4.769h-4.461v-3.616h4.461V-357H5.23V-355.089"/>
		<path fill="#535252" d="M6.309-343H0.693v-4.692h-4.462v-5.616h4.462V-358h5.616v4.692h4.461v5.616H6.309V-343z M2.078-344.385
			h2.846v-4.77h4.461V-352H4.924v-4.692H2.078V-352h-4.461v2.846h4.461V-344.385z"/>
	</g>
</g>
</svg>
