<?xml version="1.0" encoding="utf-8"?>
<!-- Generator: Adobe Illustrator 15.1.0, SVG Export Plug-In . SVG Version: 6.00 Build 0)  -->
<!DOCTYPE svg PUBLIC "-//W3C//DTD SVG 1.1//EN" "http://www.w3.org/Graphics/SVG/1.1/DTD/svg11.dtd">
<svg version="1.1" id="Layer_1" xmlns="http://www.w3.org/2000/svg" xmlns:xlink="http://www.w3.org/1999/xlink" x="0px" y="0px"
	 width="15px" height="15px" viewBox="0 0 15 15" enable-background="new 0 0 15 15" xml:space="preserve">
<g id="Туалеты" transform="translate(3.000000, 29.000000)">
	<path id="Fill-1_2_" fill="#535252" d="M-1.237-27.747c0,0.641,0.48,1.201,1.201,1.201c0.641,0,1.202-0.561,1.202-1.201
		s-0.561-1.202-1.202-1.202C-0.757-28.949-1.237-28.388-1.237-27.747"/>
	<path id="Fill-3_1_" fill="#535252" d="M2.768-21.74v-2.483c0-1.522-0.561-2.002-2.163-2.002h-0.56l0,0h-0.321l0,0h-0.56
		c-1.603,0-2.163,0.4-2.163,2.002v2.483v0.4c0,0.32,0.24,0.48,0.48,0.48c0.321,0,0.561-0.24,0.561-0.48v-0.4v-2.483h0.32v9.451
		c0,0.402,0.32,0.721,0.721,0.721c0.4,0,0.721-0.318,0.721-0.721v-5.607h0.321v5.607c0,0.402,0.32,0.721,0.72,0.721
		c0.401,0,0.721-0.318,0.721-0.721v-9.451h0.32v2.483v0.4c0,0.32,0.241,0.48,0.481,0.48c0.32,0,0.48-0.24,0.48-0.48v-0.4H2.768z"/>
	<path id="Fill-5_1_" fill="#535252" d="M8.855-26.546c0.641,0,1.201-0.561,1.201-1.201s-0.48-1.202-1.201-1.202
		c-0.643,0-1.203,0.562-1.203,1.202C7.734-27.106,8.213-26.546,8.855-26.546"/>
	<path id="Fill-7_1_" fill="#535252" d="M11.098-25.184c-0.24-0.881-0.639-1.282-2.002-1.282H8.375c-1.361,0-1.762,0.4-2.002,1.282
		L5.41-21.74c-0.08,0.24,0.082,0.561,0.32,0.561c0.24,0.08,0.561-0.08,0.561-0.321l0.963-3.284l0.32,0.08l-1.604,5.528h1.441v4.244
		c0,0.32,0.24,0.562,0.562,0.562c0.32,0,0.559-0.242,0.559-0.562v-4.244h0.322v4.244c0,0.32,0.24,0.562,0.561,0.562
		s0.561-0.242,0.561-0.562v-4.244h1.441l-1.602-5.528l0.32-0.08l0.961,3.284c0.08,0.241,0.32,0.4,0.561,0.321
		c0.242-0.08,0.4-0.321,0.32-0.561L11.098-25.184z"/>
</g>
</svg>
